<svg width="22" height="22" viewBox="0 0 22 22" fill="none" xmlns="http://www.w3.org/2000/svg">
<path d="M19.1909 4.61966C18.8609 4.26575 18.3809 4.06488 17.8909 4.06488H5.54094L5.17094 2.99357C4.98777 2.47003 4.63726 2.01477 4.16893 1.69209C3.7006 1.36942 3.13811 1.19564 2.56094 1.19531H1.21094C0.800938 1.19531 0.460938 1.52053 0.460938 1.9127C0.460938 2.30488 0.800938 2.6301 1.21094 2.6301H2.56094C3.10094 2.6301 3.58094 2.95531 3.75094 3.44314L4.27094 4.93531L5.06094 11.7649C5.21094 13.104 6.39094 14.1084 7.79094 14.1084H16.2109C17.6109 14.1084 18.7909 13.104 18.9409 11.7649L19.6209 5.92053C19.6709 5.45183 19.5209 4.97357 19.1809 4.61966H19.1909ZM17.4609 11.6118C17.3909 12.2144 16.8609 12.6736 16.2209 12.6736H7.80094C7.16094 12.6736 6.63094 12.2144 6.56094 11.6118L5.85094 5.49966H17.8909C17.9909 5.49966 18.0509 5.54749 18.0809 5.57618C18.1109 5.60488 18.1509 5.67183 18.1409 5.75792L17.4609 11.6023V11.6118ZM7.50094 15.5431C6.26094 15.5431 5.25094 16.5092 5.25094 17.6953C5.25094 18.8814 6.26094 19.8475 7.50094 19.8475C8.74094 19.8475 9.75094 18.8814 9.75094 17.6953C9.75094 16.5092 8.74094 15.5431 7.50094 15.5431ZM7.50094 18.4127C7.09094 18.4127 6.75094 18.0875 6.75094 17.6953C6.75094 17.3031 7.09094 16.9779 7.50094 16.9779C7.91094 16.9779 8.25094 17.3031 8.25094 17.6953C8.25094 18.0875 7.91094 18.4127 7.50094 18.4127ZM16.5009 15.5431C15.2609 15.5431 14.2509 16.5092 14.2509 17.6953C14.2509 18.8814 15.2609 19.8475 16.5009 19.8475C17.7409 19.8475 18.7509 18.8814 18.7509 17.6953C18.7509 16.5092 17.7409 15.5431 16.5009 15.5431ZM16.5009 18.4127C16.0909 18.4127 15.7509 18.0875 15.7509 17.6953C15.7509 17.3031 16.0909 16.9779 16.5009 16.9779C16.9109 16.9779 17.2509 17.3031 17.2509 17.6953C17.2509 18.0875 16.9109 18.4127 16.5009 18.4127Z" fill="#23262D"/>
</svg>
