<svg width="139" height="40" viewBox="0 0 139 40" fill="none" xmlns="http://www.w3.org/2000/svg">
<g clip-path="url(#clip0_3790_2880)">
<path d="M9.83839 23.7132V14.1406L6.23438 15.7716V25.3512L9.83839 23.7132Z" fill="#D9A14C"/>
<path d="M4.47226 14.6336L11.5975 11.4099V22.9109L14.1158 21.7665V5L1.0625 10.9333V27.6998L4.47226 26.1499V14.6336Z" fill="#D9A14C"/>
<path d="M13.1905 28.5884C12.5201 29.0075 12.5196 29.3686 13.1905 29.788C13.6524 30.065 14.3103 30.224 14.9957 30.224C15.6812 30.224 16.3391 30.065 16.801 29.788C17.4714 29.3689 17.4719 29.0077 16.801 28.5884C16.3391 28.3114 15.6812 28.1523 14.9957 28.1523C14.3103 28.1523 13.6524 28.3114 13.1905 28.5884Z" fill="#D9A14C"/>
<path d="M2.125 29.1508L14.9946 35.0008L27.8643 29.1508L14.9946 23.3008L2.125 29.1508ZM19.0682 29.1889C19.0682 30.01 18.5717 30.7788 17.7054 31.2987C16.2493 32.2075 13.7399 32.2076 12.2838 31.2987C10.4768 30.2448 10.4763 28.1331 12.2839 27.0791C13.74 26.1704 16.2493 26.1703 17.7054 27.0791C18.5717 27.5991 19.0682 28.3679 19.0682 29.1889Z" fill="#D9A14C"/>
<path d="M24.2007 14.647L19.7188 12.6094V18.6208L24.2007 20.6578V14.647Z" fill="#D9A14C"/>
<path d="M15.875 5V21.7665L28.9283 27.6998V10.9333L15.875 5ZM25.9628 23.3916L17.9596 19.7535V9.8746L25.9628 13.5127V23.3916Z" fill="#D9A14C"/>
</g>
<path d="M52.45 29H42.58C42.16 29 41.95 28.79 41.95 28.37V10.34C41.95 9.92 42.16 9.71 42.58 9.71H45.13C45.55 9.71 45.76 9.92 45.76 10.34V25.34C45.76 25.56 45.88 25.67 46.12 25.67H52.45C52.85 25.67 53.05 25.89 53.05 26.33V28.37C53.05 28.79 52.85 29 52.45 29ZM60.6466 29H59.6566C58.1166 29 56.9466 28.58 56.1466 27.74C55.3666 26.9 54.9766 25.69 54.9766 24.11V14.33C54.9766 13.91 55.1866 13.7 55.6066 13.7H58.1566C58.5766 13.7 58.7866 13.91 58.7866 14.33V23.93C58.7866 24.57 58.9166 25.03 59.1766 25.31C59.4566 25.57 59.9066 25.7 60.5266 25.7H61.6366C63.0166 25.7 63.7066 24.94 63.7066 23.42V14.33C63.7066 13.91 63.9166 13.7 64.3366 13.7H66.8566C67.2966 13.7 67.5166 13.91 67.5166 14.33V28.37C67.5166 28.79 67.2966 29 66.8566 29H64.3366C63.9166 29 63.7066 28.79 63.7066 28.37V27.38H63.5866C63.3666 27.92 62.9766 28.33 62.4166 28.61C61.8566 28.87 61.2666 29 60.6466 29ZM73.2897 29H70.2597C69.7397 29 69.5997 28.79 69.8397 28.37L73.6197 21.2L69.8397 14.33C69.6397 13.91 69.7597 13.7 70.1997 13.7H73.2597C73.7397 13.7 74.0497 13.91 74.1897 14.33L76.0797 18.89H76.1997L77.8497 14.33C77.9897 13.91 78.2997 13.7 78.7797 13.7H81.7797C82.2997 13.7 82.4297 13.91 82.1697 14.33L78.5697 21.2L82.4397 28.37C82.5397 28.55 82.5497 28.7 82.4697 28.82C82.4097 28.94 82.2797 29 82.0797 29H78.9897C78.5697 29 78.2697 28.79 78.0897 28.37L76.1997 23.78H76.0797L74.1897 28.37C74.0497 28.79 73.7497 29 73.2897 29ZM95.9671 29H89.3371C87.7571 29 86.5371 28.58 85.6771 27.74C84.8171 26.9 84.3871 25.69 84.3871 24.11V18.59C84.3871 17.01 84.8171 15.8 85.6771 14.96C86.5371 14.12 87.7571 13.7 89.3371 13.7H91.7071C93.2871 13.7 94.5071 14.12 95.3671 14.96C96.2271 15.8 96.6571 17.01 96.6571 18.59V22.4C96.6571 22.82 96.4471 23.03 96.0271 23.03H88.4971C88.2571 23.03 88.1371 23.14 88.1371 23.36V24.02C88.1371 24.64 88.2671 25.09 88.5271 25.37C88.8071 25.63 89.2671 25.76 89.9071 25.76H95.9671C96.3871 25.76 96.5971 25.98 96.5971 26.42V28.4C96.5971 28.62 96.5471 28.78 96.4471 28.88C96.3671 28.96 96.2071 29 95.9671 29ZM88.4971 20.48H92.5771C92.7971 20.48 92.9071 20.37 92.9071 20.15V18.71C92.9071 18.07 92.7771 17.62 92.5171 17.36C92.2571 17.1 91.8071 16.97 91.1671 16.97H89.9071C89.2671 16.97 88.8171 17.1 88.5571 17.36C88.2971 17.62 88.1671 18.07 88.1671 18.71V20.15C88.1671 20.37 88.2771 20.48 88.4971 20.48ZM102.841 29H100.291C99.8713 29 99.6613 28.79 99.6613 28.37V8.54C99.6613 8.12 99.8713 7.91 100.291 7.91H102.841C103.261 7.91 103.471 8.12 103.471 8.54V28.37C103.471 28.79 103.261 29 102.841 29ZM107.073 11.12V8.51C107.073 8.11 107.273 7.91 107.673 7.91H110.283C110.683 7.91 110.883 8.1 110.883 8.48V11.12C110.883 11.52 110.683 11.72 110.283 11.72H107.673C107.273 11.72 107.073 11.52 107.073 11.12ZM107.073 28.37V14.33C107.073 13.91 107.273 13.7 107.673 13.7H110.253C110.673 13.7 110.883 13.91 110.883 14.33V28.37C110.883 28.63 110.833 28.8 110.733 28.88C110.653 28.96 110.503 29 110.283 29H107.703C107.283 29 107.073 28.79 107.073 28.37ZM119.886 13.7H122.286C122.526 13.7 122.686 13.75 122.766 13.85C122.866 13.93 122.916 14.08 122.916 14.3V16.37C122.916 16.79 122.706 17 122.286 17H119.886C119.666 17 119.556 17.11 119.556 17.33V28.37C119.556 28.79 119.336 29 118.896 29H116.376C115.956 29 115.746 28.79 115.746 28.37V17.33C115.746 17.11 115.626 17 115.386 17H114.006C113.586 17 113.376 16.79 113.376 16.37V14.3C113.376 14.06 113.416 13.9 113.496 13.82C113.596 13.74 113.766 13.7 114.006 13.7H115.386C115.626 13.7 115.746 13.59 115.746 13.37V12.8C115.746 11.22 116.156 10.01 116.976 9.17C117.816 8.33 119.026 7.91 120.606 7.91H122.316C122.556 7.91 122.716 7.96 122.796 8.06C122.876 8.14 122.916 8.29 122.916 8.51V10.58C122.916 11 122.716 11.21 122.316 11.21H121.206C120.566 11.21 120.126 11.35 119.886 11.63C119.666 11.89 119.556 12.34 119.556 12.98V13.37C119.556 13.59 119.666 13.7 119.886 13.7ZM136.221 29H129.591C128.011 29 126.791 28.58 125.931 27.74C125.071 26.9 124.641 25.69 124.641 24.11V18.59C124.641 17.01 125.071 15.8 125.931 14.96C126.791 14.12 128.011 13.7 129.591 13.7H131.961C133.541 13.7 134.761 14.12 135.621 14.96C136.481 15.8 136.911 17.01 136.911 18.59V22.4C136.911 22.82 136.701 23.03 136.281 23.03H128.751C128.511 23.03 128.391 23.14 128.391 23.36V24.02C128.391 24.64 128.521 25.09 128.781 25.37C129.061 25.63 129.521 25.76 130.161 25.76H136.221C136.641 25.76 136.851 25.98 136.851 26.42V28.4C136.851 28.62 136.801 28.78 136.701 28.88C136.621 28.96 136.461 29 136.221 29ZM128.751 20.48H132.831C133.051 20.48 133.161 20.37 133.161 20.15V18.71C133.161 18.07 133.031 17.62 132.771 17.36C132.511 17.1 132.061 16.97 131.421 16.97H130.161C129.521 16.97 129.071 17.1 128.811 17.36C128.551 17.62 128.421 18.07 128.421 18.71V20.15C128.421 20.37 128.531 20.48 128.751 20.48Z" fill="#23262D"/>
<defs>
<clipPath id="clip0_3790_2880">
<rect width="30" height="30" fill="white" transform="translate(0 5)"/>
</clipPath>
</defs>
</svg>
