<svg width="65" height="65" viewBox="0 0 65 65" fill="none" xmlns="http://www.w3.org/2000/svg">
<path d="M62.8334 7.58347H15.1664C15.1664 3.395 11.7714 0 7.58347 0C3.395 0 0 3.395 0 7.58347V57.4165C0 61.605 3.395 65 7.58347 65C11.7714 65 15.1664 61.605 15.1664 57.4165H62.8334C64.0295 57.415 64.9985 56.446 65 55.2499V9.7501C64.9985 8.55396 64.0295 7.58495 62.8334 7.58347ZM62.8334 48.3012L55.8847 55.2499H53.5321L62.8334 45.9486V48.3012ZM62.8334 42.8849L50.4678 55.2499H43.782L62.8334 36.1985V42.8849ZM62.8334 33.1348L40.7182 55.2499H38.3651L62.8334 30.7822V33.1348ZM62.8334 27.7179L35.3014 55.2499H28.615L62.8334 21.0321V27.7179ZM62.8334 17.9678L25.5513 55.2499H23.1987L62.8334 15.6152V17.9678ZM25.5513 9.7501L15.1664 20.135V17.7819L23.1987 9.7501H25.5513ZM35.3014 9.7501L15.1664 29.8846V23.1987L28.615 9.7501H35.3014ZM40.7182 9.7501L27.9423 22.5257L15.1664 35.3014V32.9488L38.3651 9.7501H40.7182ZM50.4678 9.7501L15.1664 45.0515V38.3651L29.4742 24.0576L43.782 9.7501H50.4678ZM15.1664 48.1152L53.5321 9.7501H55.8847L15.1664 50.4678V48.1152ZM20.135 9.7501L15.1664 14.7181V9.7501H20.135ZM7.58347 2.16663C10.5748 2.16663 12.9998 4.59164 12.9998 7.58347C12.9998 10.5748 10.5748 12.9998 7.58347 12.9998C4.59164 12.9998 2.16663 10.5748 2.16663 7.58347C2.1701 4.59312 4.59312 2.1701 7.58347 2.16663ZM7.58347 62.8334C4.59312 62.8299 2.1701 60.4069 2.16663 57.4165V12.8808C3.5899 14.3427 5.54329 15.1674 7.58347 15.1674C9.62364 15.1674 11.577 14.3427 12.9998 12.8808V57.4165C12.9963 60.4069 10.5733 62.8299 7.58347 62.8334ZM15.1664 53.5321L58.9484 9.7501H62.8334V12.5515L20.135 55.2499H15.1664V53.5321ZM58.9484 55.2499L62.8334 51.3654V55.2499H58.9484Z" fill="#D9A14C"/>
</svg>
