<svg width="29" height="65" viewBox="0 0 29 65" fill="none" xmlns="http://www.w3.org/2000/svg">
<path d="M24.2392 0H4.73946C4.20983 0 3.75756 0.382843 3.67078 0.905533L0.421073 20.4057C0.368507 20.7196 0.457275 21.0405 0.663078 21.2835C0.868881 21.5265 1.17089 21.6668 1.48926 21.6668H11.2394V56.3335H10.1563C6.56789 56.3374 3.65987 59.245 3.6559 62.8334V63.9164C3.6559 64.515 4.1409 65 4.73946 65H24.2392C24.8377 65 25.3227 64.515 25.3227 63.9164V62.8334C25.3188 59.245 22.4107 56.3374 18.8228 56.3335H17.7393V21.6668H22.0725V30.5332C20.5803 31.0604 19.6852 32.5868 19.953 34.1469C20.2203 35.7066 21.5732 36.8472 23.1561 36.8472C24.739 36.8472 26.0914 35.7066 26.3592 34.1469C26.627 32.5868 25.7319 31.0604 24.2392 30.5332V21.6668H27.4894C27.8077 21.6668 28.1097 21.5265 28.3156 21.2835C28.5214 21.0405 28.6101 20.7196 28.5581 20.4057L25.3079 0.905533C25.2211 0.382843 24.7693 0 24.2392 0ZM23.1561 34.6666C22.5575 34.6666 22.0725 34.1816 22.0725 33.5836C22.0725 32.985 22.5575 32.5 23.1561 32.5C23.7542 32.5 24.2392 32.985 24.2392 33.5836C24.2392 34.1816 23.7542 34.6661 23.1561 34.6666ZM23.1561 62.8334H5.82253C5.82501 60.4411 7.76402 58.5021 10.1563 58.5001H18.8228C21.2151 58.5021 23.1536 60.4411 23.1561 62.8334ZM15.5726 56.3335H13.406V21.6668H15.5726V56.3335ZM16.6562 19.5002H2.76871L5.6564 2.16663H23.3222L26.2104 19.5002H16.6562Z" fill="#D9A14C"/>
</svg>
