<svg width="51" height="65" viewBox="0 0 51 65" fill="none" xmlns="http://www.w3.org/2000/svg">
<path d="M49.3654 30.3274H41.7835V11.9144C41.7835 11.316 41.2986 10.831 40.7006 10.831C40.1022 10.831 39.6173 11.316 39.6173 11.9144V12.9973H37.4044C36.9334 5.73954 31.7973 0 25.5366 0C19.2765 0 14.1399 5.73954 13.6689 12.9973H11.456V11.9144C11.456 11.316 10.9711 10.831 10.3732 10.831C9.77474 10.831 9.28984 11.316 9.28984 11.9144V30.3274H1.70786C1.10991 30.3274 0.625 30.8123 0.625 31.4103C0.625 32.0087 1.10991 32.4936 1.70786 32.4936H3.87407V36.826C3.87754 37.9669 4.76653 38.909 5.90492 38.9789C5.76212 40.9349 5.89054 44.7065 8.5243 47.3403C10.8402 49.6567 11.8086 53.7343 10.992 57.7286C10.865 58.267 10.3439 58.6166 9.79755 58.5293C8.59024 58.3364 7.37649 58.8382 6.65756 59.8268C5.93814 60.816 5.8355 62.1254 6.39081 63.2147C6.94662 64.304 8.06716 64.9888 9.28984 64.9873C12.0109 65.1563 14.5529 63.6243 15.6744 61.1393C16.7489 58.8595 17.3136 56.3735 17.3299 53.8538C17.3845 51.6633 17.1237 49.4762 16.5545 47.3601C16.2982 46.4557 15.9893 45.5667 15.6298 44.6976C15.1221 43.5567 14.7621 42.3554 14.5593 41.1228C14.5197 40.7812 14.4661 39.7107 14.481 38.9923H36.6062C36.6211 39.7107 36.5675 40.7817 36.5273 41.1238C36.3251 42.3568 35.9646 43.5587 35.4559 44.7001C35.0969 45.5682 34.788 46.4562 34.5317 47.3601C33.9635 49.4762 33.7022 51.6633 33.7562 53.8538C33.7736 56.3735 34.3388 58.8595 35.4128 61.1393C36.5338 63.6243 39.0758 65.1568 41.7973 64.9873C42.781 64.9853 43.7117 64.5386 44.328 63.7715C44.9443 63.0045 45.1808 62 44.9715 61.0386C44.7003 59.8313 43.7712 58.8798 42.5703 58.5799C42.1519 58.4772 41.7165 58.4594 41.2906 58.5283C40.7442 58.6161 40.2226 58.267 40.0952 57.7286C39.2786 53.7333 40.2469 49.6557 42.5629 47.3393C45.1976 44.705 45.3251 40.9324 45.1823 38.9769C46.3147 38.9005 47.1953 37.9615 47.1992 36.826V32.4936H49.3654C49.9634 32.4936 50.4483 32.0087 50.4483 31.4103C50.4483 30.8123 49.9634 30.3274 49.3654 30.3274ZM25.5366 2.16621C30.9123 2.16621 35.2848 7.51108 35.2848 14.0806C35.2848 20.6501 30.9123 25.995 25.5366 25.995C20.161 25.995 15.7885 20.6501 15.7885 14.0806C15.7885 7.51108 20.161 2.16621 25.5366 2.16621ZM11.456 15.1635H13.6689C14.1399 22.4217 19.2765 28.1612 25.5366 28.1612C31.7973 28.1612 36.9334 22.4217 37.4044 15.1635H39.6173V30.3274H11.456V15.1635ZM12.408 41.3732C12.6286 42.7917 13.0337 44.1755 13.6128 45.4889C13.9421 46.2802 14.2247 47.0899 14.4602 47.9134C14.9763 49.8288 15.2133 51.8085 15.1637 53.7913C15.1494 55.9957 14.663 58.1708 13.7368 60.1709C12.9727 61.9132 11.1858 62.9782 9.28984 62.8211C8.74345 62.822 8.28135 62.416 8.21243 61.8736C8.14352 61.3316 8.48959 60.8229 9.01912 60.6871C9.10787 60.6658 9.1996 60.6549 9.29083 60.6549C9.34685 60.6549 9.40288 60.6588 9.45792 60.6672C11.1506 60.9454 12.762 59.8412 13.1135 58.1629C14.0729 53.475 12.8726 48.6254 10.0559 45.8082C7.98238 43.7352 7.95312 40.5238 8.07757 38.9923H12.3034C12.2801 39.7875 12.3153 40.5833 12.408 41.3732ZM14.7056 34.6598C14.1072 34.6598 13.6223 35.1447 13.6223 35.7432V36.826H6.04077V32.4936H24.4538V36.826H15.7885V35.7432C15.7885 35.1447 15.3036 34.6598 14.7056 34.6598ZM41.0313 45.8082C38.2146 48.6254 37.0142 53.475 37.9736 58.1639C38.3252 59.8432 39.9376 60.9469 41.6303 60.6672C41.7765 60.6454 41.9263 60.6524 42.07 60.6876C42.5971 60.8259 42.9392 61.3336 42.8703 61.8741C42.8009 62.4145 42.3418 62.8196 41.7973 62.8211C39.9009 62.9782 38.1144 61.9132 37.3504 60.1704C36.4242 58.1698 35.9373 55.9942 35.9225 53.7903C35.8739 51.8076 36.1109 49.8283 36.626 47.9134C36.8615 47.0904 37.1446 46.2817 37.4734 45.4909C38.0525 44.177 38.458 42.7932 38.6792 41.3741C38.7719 40.5838 38.8071 39.788 38.7838 38.9923H43.0081C43.1341 40.5258 43.1048 43.7352 41.0313 45.8082ZM45.035 36.826H37.451V35.7432C37.451 35.1447 36.9661 34.6598 36.3677 34.6598C35.7697 34.6598 35.2848 35.1447 35.2848 35.7432V36.826H26.62V32.4936H45.033L45.035 36.826Z" fill="#D9A14C"/>
</svg>
